<svg width="93" height="43" viewBox="0 0 93 43" fill="none" xmlns="http://www.w3.org/2000/svg">
<path d="M0.220139 1.03457V42H6.13086V1.03457H0.220139ZM31.4261 42H37.5709L27.271 1.03457H20.8921L10.5923 42H16.7956L18.6683 33.7484H29.4949L31.4261 42ZM19.9558 28.2473L22.4722 17.2452C23.116 14.5532 23.7012 10.6322 23.9938 8.46687H24.1694C24.462 10.6322 25.1057 14.5532 25.6909 17.2452L28.2659 28.2473H19.9558ZM51.3048 42.7608C58.9712 42.7608 63.2433 37.5523 63.2433 31.466C63.2433 18.7668 46.0379 18.7668 46.0379 10.7492C46.0379 7.82313 47.9691 5.95042 51.3048 5.95042C54.465 5.95042 56.5133 7.82313 56.6304 11.7441H62.6581C62.4826 4.77998 58.269 0.273784 51.2463 0.273784C44.3407 0.273784 40.0101 4.72146 40.0101 10.6322C40.0101 22.8048 57.1571 23.2729 57.1571 31.4075C57.1571 34.6847 55.2258 37.0256 51.3048 37.0256C47.6765 37.0256 45.3941 34.9774 45.3356 30.7638H39.3078C39.3664 38.2546 44.0481 42.7608 51.3048 42.7608ZM86.3477 42H92.4925L82.1926 1.03457H75.8137L65.5138 42H71.7172L73.5899 33.7484H84.4164L86.3477 42ZM74.8773 28.2473L77.3938 17.2452C78.0375 14.5532 78.6228 10.6322 78.9154 8.46687H79.0909C79.3835 10.6322 80.0273 14.5532 80.6125 17.2452L83.1875 28.2473H74.8773Z" fill="white"/>
</svg>
